<mxfile host="app.diagrams.net" modified="2020-10-24T04:19:42.988Z" agent="5.0 (Macintosh; Intel Mac OS X 10_15_6) AppleWebKit/537.36 (KHTML, like Gecko) Chrome/86.0.4240.111 Safari/537.36" etag="0D_idgswOxldjLNSRSaE" version="13.8.1" type="github">
  <diagram id="94A1VZJgreC6ts1XR8HZ" name="Page-1">
    <mxGraphModel dx="2066" dy="1131" grid="1" gridSize="10" guides="1" tooltips="1" connect="1" arrows="1" fold="1" page="1" pageScale="1" pageWidth="827" pageHeight="1169" math="0" shadow="0">
      <root>
        <mxCell id="0" />
        <mxCell id="1" parent="0" />
        <mxCell id="uUaT_VpsIP1angWwcYCl-4" value="" style="edgeStyle=orthogonalEdgeStyle;rounded=0;orthogonalLoop=1;jettySize=auto;html=1;" parent="1" source="uUaT_VpsIP1angWwcYCl-1" target="uUaT_VpsIP1angWwcYCl-2" edge="1">
          <mxGeometry relative="1" as="geometry" />
        </mxCell>
        <mxCell id="uUaT_VpsIP1angWwcYCl-1" value="开始" style="ellipse;whiteSpace=wrap;html=1;" parent="1" vertex="1">
          <mxGeometry x="80" y="160" width="120" height="80" as="geometry" />
        </mxCell>
        <mxCell id="uUaT_VpsIP1angWwcYCl-5" value="" style="edgeStyle=orthogonalEdgeStyle;rounded=0;orthogonalLoop=1;jettySize=auto;html=1;" parent="1" source="uUaT_VpsIP1angWwcYCl-2" target="uUaT_VpsIP1angWwcYCl-3" edge="1">
          <mxGeometry relative="1" as="geometry" />
        </mxCell>
        <mxCell id="uUaT_VpsIP1angWwcYCl-2" value="无人车遇到需要&lt;br&gt;接管场景" style="rounded=1;whiteSpace=wrap;html=1;" parent="1" vertex="1">
          <mxGeometry x="80" y="290" width="120" height="60" as="geometry" />
        </mxCell>
        <mxCell id="uUaT_VpsIP1angWwcYCl-3" value="发起需要接管&lt;br&gt;任务申请" style="rounded=1;whiteSpace=wrap;html=1;" parent="1" vertex="1">
          <mxGeometry x="80" y="390" width="120" height="60" as="geometry" />
        </mxCell>
        <mxCell id="uUaT_VpsIP1angWwcYCl-6" value="远程驾驶仓1" style="rounded=1;whiteSpace=wrap;html=1;" parent="1" vertex="1">
          <mxGeometry x="960" y="200" width="120" height="60" as="geometry" />
        </mxCell>
        <mxCell id="uUaT_VpsIP1angWwcYCl-7" value="远程驾驶云平台" style="rounded=0;whiteSpace=wrap;html=1;" parent="1" vertex="1">
          <mxGeometry x="570" y="150" width="120" height="60" as="geometry" />
        </mxCell>
        <mxCell id="uUaT_VpsIP1angWwcYCl-9" value="远程驾驶仓2" style="rounded=1;whiteSpace=wrap;html=1;" parent="1" vertex="1">
          <mxGeometry x="960" y="280" width="120" height="60" as="geometry" />
        </mxCell>
        <mxCell id="uUaT_VpsIP1angWwcYCl-10" value="。。。。" style="rounded=1;whiteSpace=wrap;html=1;" parent="1" vertex="1">
          <mxGeometry x="960" y="370" width="120" height="60" as="geometry" />
        </mxCell>
        <mxCell id="uUaT_VpsIP1angWwcYCl-20" value="" style="edgeStyle=orthogonalEdgeStyle;rounded=0;orthogonalLoop=1;jettySize=auto;html=1;" parent="1" source="uUaT_VpsIP1angWwcYCl-14" target="uUaT_VpsIP1angWwcYCl-19" edge="1">
          <mxGeometry relative="1" as="geometry" />
        </mxCell>
        <mxCell id="uUaT_VpsIP1angWwcYCl-14" value="基于驾驶员&lt;br&gt;工作状态&lt;br&gt;身体状态信息&lt;br&gt;进行从优匹配" style="rounded=1;whiteSpace=wrap;html=1;" parent="1" vertex="1">
          <mxGeometry x="790" y="725" width="120" height="60" as="geometry" />
        </mxCell>
        <mxCell id="uUaT_VpsIP1angWwcYCl-22" value="" style="edgeStyle=orthogonalEdgeStyle;rounded=0;orthogonalLoop=1;jettySize=auto;html=1;" parent="1" source="uUaT_VpsIP1angWwcYCl-19" target="uUaT_VpsIP1angWwcYCl-21" edge="1">
          <mxGeometry relative="1" as="geometry" />
        </mxCell>
        <mxCell id="uUaT_VpsIP1angWwcYCl-19" value="建立远程驾驶仓&lt;br&gt;与无人车连接" style="rounded=1;whiteSpace=wrap;html=1;" parent="1" vertex="1">
          <mxGeometry x="790" y="815" width="120" height="60" as="geometry" />
        </mxCell>
        <mxCell id="uUaT_VpsIP1angWwcYCl-21" value="驾驶仓发送&lt;br&gt;无人车操作指令" style="rounded=1;whiteSpace=wrap;html=1;" parent="1" vertex="1">
          <mxGeometry x="790" y="920" width="120" height="60" as="geometry" />
        </mxCell>
        <mxCell id="uUaT_VpsIP1angWwcYCl-26" value="" style="edgeStyle=orthogonalEdgeStyle;rounded=0;orthogonalLoop=1;jettySize=auto;html=1;" parent="1" source="uUaT_VpsIP1angWwcYCl-23" target="uUaT_VpsIP1angWwcYCl-25" edge="1">
          <mxGeometry relative="1" as="geometry" />
        </mxCell>
        <mxCell id="uUaT_VpsIP1angWwcYCl-23" value="无人车接收操作指令&lt;br&gt;与自动算法进行择优算法匹配" style="rounded=1;whiteSpace=wrap;html=1;" parent="1" vertex="1">
          <mxGeometry x="80" y="570" width="120" height="60" as="geometry" />
        </mxCell>
        <mxCell id="uUaT_VpsIP1angWwcYCl-28" value="" style="edgeStyle=orthogonalEdgeStyle;rounded=0;orthogonalLoop=1;jettySize=auto;html=1;" parent="1" source="uUaT_VpsIP1angWwcYCl-25" target="uUaT_VpsIP1angWwcYCl-27" edge="1">
          <mxGeometry relative="1" as="geometry" />
        </mxCell>
        <mxCell id="uUaT_VpsIP1angWwcYCl-25" value="确认最终执行&lt;br&gt;指令" style="rounded=1;whiteSpace=wrap;html=1;" parent="1" vertex="1">
          <mxGeometry x="80" y="670" width="120" height="60" as="geometry" />
        </mxCell>
        <mxCell id="uUaT_VpsIP1angWwcYCl-27" value="完成接管操作" style="rounded=1;whiteSpace=wrap;html=1;" parent="1" vertex="1">
          <mxGeometry x="80" y="760" width="120" height="60" as="geometry" />
        </mxCell>
        <mxCell id="OHjB7JMjwnAzmLHX4Sn5-1" value="无人车端" style="text;html=1;strokeColor=none;fillColor=none;align=center;verticalAlign=middle;whiteSpace=wrap;rounded=0;" vertex="1" parent="1">
          <mxGeometry x="95" y="100" width="90" height="20" as="geometry" />
        </mxCell>
        <mxCell id="OHjB7JMjwnAzmLHX4Sn5-2" value="云平台端" style="text;html=1;strokeColor=none;fillColor=none;align=center;verticalAlign=middle;whiteSpace=wrap;rounded=0;" vertex="1" parent="1">
          <mxGeometry x="585" y="100" width="90" height="20" as="geometry" />
        </mxCell>
        <mxCell id="OHjB7JMjwnAzmLHX4Sn5-3" value="远程驾驶仓端" style="text;html=1;strokeColor=none;fillColor=none;align=center;verticalAlign=middle;whiteSpace=wrap;rounded=0;" vertex="1" parent="1">
          <mxGeometry x="975" y="100" width="90" height="20" as="geometry" />
        </mxCell>
        <mxCell id="OHjB7JMjwnAzmLHX4Sn5-4" value="" style="endArrow=classic;html=1;exitX=1;exitY=0.5;exitDx=0;exitDy=0;entryX=0;entryY=0.5;entryDx=0;entryDy=0;edgeStyle=elbowEdgeStyle;" edge="1" parent="1" source="uUaT_VpsIP1angWwcYCl-3" target="uUaT_VpsIP1angWwcYCl-7">
          <mxGeometry width="50" height="50" relative="1" as="geometry">
            <mxPoint x="270" y="390" as="sourcePoint" />
            <mxPoint x="320" y="340" as="targetPoint" />
          </mxGeometry>
        </mxCell>
        <mxCell id="OHjB7JMjwnAzmLHX4Sn5-5" value="人工求助" style="rounded=1;whiteSpace=wrap;html=1;" vertex="1" parent="1">
          <mxGeometry x="670" y="280" width="120" height="60" as="geometry" />
        </mxCell>
        <mxCell id="OHjB7JMjwnAzmLHX4Sn5-10" value="" style="edgeStyle=orthogonalEdgeStyle;rounded=0;orthogonalLoop=1;jettySize=auto;html=1;" edge="1" parent="1" source="OHjB7JMjwnAzmLHX4Sn5-6" target="OHjB7JMjwnAzmLHX4Sn5-9">
          <mxGeometry relative="1" as="geometry" />
        </mxCell>
        <mxCell id="OHjB7JMjwnAzmLHX4Sn5-6" value="云端求助" style="rounded=1;whiteSpace=wrap;html=1;" vertex="1" parent="1">
          <mxGeometry x="505" y="280" width="120" height="60" as="geometry" />
        </mxCell>
        <mxCell id="OHjB7JMjwnAzmLHX4Sn5-7" value="" style="endArrow=classic;html=1;exitX=0.5;exitY=1;exitDx=0;exitDy=0;entryX=0.5;entryY=0;entryDx=0;entryDy=0;edgeStyle=orthogonalEdgeStyle;" edge="1" parent="1" source="uUaT_VpsIP1angWwcYCl-7" target="OHjB7JMjwnAzmLHX4Sn5-6">
          <mxGeometry width="50" height="50" relative="1" as="geometry">
            <mxPoint x="630" y="480" as="sourcePoint" />
            <mxPoint x="680" y="430" as="targetPoint" />
          </mxGeometry>
        </mxCell>
        <mxCell id="OHjB7JMjwnAzmLHX4Sn5-8" value="" style="endArrow=classic;html=1;exitX=0.5;exitY=1;exitDx=0;exitDy=0;entryX=0.5;entryY=0;entryDx=0;entryDy=0;edgeStyle=orthogonalEdgeStyle;" edge="1" parent="1" source="uUaT_VpsIP1angWwcYCl-7" target="OHjB7JMjwnAzmLHX4Sn5-5">
          <mxGeometry width="50" height="50" relative="1" as="geometry">
            <mxPoint x="740" y="440" as="sourcePoint" />
            <mxPoint x="790" y="390" as="targetPoint" />
          </mxGeometry>
        </mxCell>
        <mxCell id="OHjB7JMjwnAzmLHX4Sn5-12" value="" style="edgeStyle=orthogonalEdgeStyle;rounded=0;orthogonalLoop=1;jettySize=auto;html=1;" edge="1" parent="1" source="OHjB7JMjwnAzmLHX4Sn5-9" target="OHjB7JMjwnAzmLHX4Sn5-11">
          <mxGeometry relative="1" as="geometry" />
        </mxCell>
        <mxCell id="OHjB7JMjwnAzmLHX4Sn5-9" value="同步车端&lt;br&gt;场景信息" style="rounded=1;whiteSpace=wrap;html=1;" vertex="1" parent="1">
          <mxGeometry x="505" y="390" width="120" height="60" as="geometry" />
        </mxCell>
        <mxCell id="OHjB7JMjwnAzmLHX4Sn5-14" value="" style="edgeStyle=orthogonalEdgeStyle;rounded=0;orthogonalLoop=1;jettySize=auto;html=1;" edge="1" parent="1" source="OHjB7JMjwnAzmLHX4Sn5-11" target="OHjB7JMjwnAzmLHX4Sn5-13">
          <mxGeometry relative="1" as="geometry" />
        </mxCell>
        <mxCell id="OHjB7JMjwnAzmLHX4Sn5-11" value="基于历史场景数据&lt;br&gt;查询" style="rounded=1;whiteSpace=wrap;html=1;" vertex="1" parent="1">
          <mxGeometry x="505" y="480" width="120" height="60" as="geometry" />
        </mxCell>
        <mxCell id="OHjB7JMjwnAzmLHX4Sn5-13" value="云端指定" style="rounded=1;whiteSpace=wrap;html=1;" vertex="1" parent="1">
          <mxGeometry x="505" y="570" width="120" height="60" as="geometry" />
        </mxCell>
        <mxCell id="OHjB7JMjwnAzmLHX4Sn5-17" value="" style="endArrow=classic;html=1;exitX=0;exitY=0.5;exitDx=0;exitDy=0;entryX=1;entryY=0.5;entryDx=0;entryDy=0;" edge="1" parent="1" source="OHjB7JMjwnAzmLHX4Sn5-13" target="uUaT_VpsIP1angWwcYCl-23">
          <mxGeometry width="50" height="50" relative="1" as="geometry">
            <mxPoint x="390" y="710" as="sourcePoint" />
            <mxPoint x="440" y="660" as="targetPoint" />
          </mxGeometry>
        </mxCell>
        <mxCell id="OHjB7JMjwnAzmLHX4Sn5-18" value="" style="endArrow=classic;html=1;exitX=1;exitY=0.5;exitDx=0;exitDy=0;entryX=0;entryY=0.5;entryDx=0;entryDy=0;edgeStyle=orthogonalEdgeStyle;" edge="1" parent="1" source="OHjB7JMjwnAzmLHX4Sn5-5" target="uUaT_VpsIP1angWwcYCl-6">
          <mxGeometry width="50" height="50" relative="1" as="geometry">
            <mxPoint x="890" y="440" as="sourcePoint" />
            <mxPoint x="940" y="390" as="targetPoint" />
          </mxGeometry>
        </mxCell>
        <mxCell id="OHjB7JMjwnAzmLHX4Sn5-19" value="" style="endArrow=classic;html=1;exitX=1;exitY=0.5;exitDx=0;exitDy=0;entryX=0;entryY=0.5;entryDx=0;entryDy=0;" edge="1" parent="1" source="OHjB7JMjwnAzmLHX4Sn5-5" target="uUaT_VpsIP1angWwcYCl-9">
          <mxGeometry width="50" height="50" relative="1" as="geometry">
            <mxPoint x="890" y="440" as="sourcePoint" />
            <mxPoint x="940" y="390" as="targetPoint" />
          </mxGeometry>
        </mxCell>
        <mxCell id="OHjB7JMjwnAzmLHX4Sn5-20" value="" style="endArrow=classic;html=1;exitX=1;exitY=0.5;exitDx=0;exitDy=0;entryX=0;entryY=0.5;entryDx=0;entryDy=0;edgeStyle=orthogonalEdgeStyle;" edge="1" parent="1" source="OHjB7JMjwnAzmLHX4Sn5-5" target="uUaT_VpsIP1angWwcYCl-10">
          <mxGeometry width="50" height="50" relative="1" as="geometry">
            <mxPoint x="910" y="460" as="sourcePoint" />
            <mxPoint x="960" y="410" as="targetPoint" />
          </mxGeometry>
        </mxCell>
      </root>
    </mxGraphModel>
  </diagram>
</mxfile>
